<svg width="32" height="32" viewBox="0 0 32 32" fill="none" xmlns="http://www.w3.org/2000/svg">
  <defs>
    <linearGradient id="logoGradient" x1="0" y1="32" x2="32" y2="0" gradientUnits="userSpaceOnUse">
      <stop offset="0%" stop-color="#38bdf8"/>
      <stop offset="100%" stop-color="#5DEBD7"/>
    </linearGradient>
    <linearGradient id="arrowGradient" x1="20" y1="20" x2="28" y2="4" gradientUnits="userSpaceOnUse">
      <stop offset="0%" stop-color="#38bdf8"/>
      <stop offset="100%" stop-color="#7EEEE5"/>
    </linearGradient>
  </defs>
  
  <!-- Background -->
  <rect width="32" height="32" rx="6" fill="#0a0a0a"/>
  
  <!-- Shield/Hexagon shape behind -->
  <path d="M16 4L26 9V17L16 28L6 17V9L16 4Z" fill="none" stroke="url(#logoGradient)" stroke-width="1.5" stroke-opacity="0.4"/>
  
  <!-- M Letter -->
  <path d="M7 22V10H10L14 17L18 10H21V22H18V14L14.5 20H13.5L10 14V22H7Z" fill="url(#logoGradient)"/>
  
  <!-- Upward Arrow with F integration -->
  <path d="M19 14L19 8L25 8" stroke="url(#arrowGradient)" stroke-width="2.5" stroke-linecap="round" stroke-linejoin="round"/>
  <path d="M19 8L26 4" stroke="url(#arrowGradient)" stroke-width="2.5" stroke-linecap="round"/>
  
  <!-- Arrow head -->
  <path d="M24 2L26 4L24 6" stroke="url(#arrowGradient)" stroke-width="2" stroke-linecap="round" stroke-linejoin="round"/>
</svg>
